<svg width="764" height="489" viewBox="0 0 764 489" fill="none" xmlns="http://www.w3.org/2000/svg">
<path d="M764 110C764 170.751 713.856 220 652 220C590.144 220 540 170.751 540 110C540 49.2487 590.144 0 652 0C713.856 0 764 49.2487 764 110Z" fill="white"/>
<path d="M540 223.5C540 261.884 509.108 293 471 293C432.892 293 402 261.884 402 223.5C402 185.116 432.892 154 471 154C509.108 154 540 185.116 540 223.5Z" fill="white"/>
<path d="M622 188.5C622 226.884 590.884 258 552.5 258C514.116 258 483 226.884 483 188.5C483 150.116 514.116 119 552.5 119C590.884 119 622 150.116 622 188.5Z" fill="white"/>
<path d="M454 242.5C454 280.884 423.108 312 385 312C346.892 312 316 280.884 316 242.5C316 204.116 346.892 173 385 173C423.108 173 454 204.116 454 242.5Z" fill="white"/>
<path d="M390 272.5C390 329.661 343.438 376 286 376C228.562 376 182 329.661 182 272.5C182 215.339 228.562 169 286 169C343.438 169 390 215.339 390 272.5Z" fill="white"/>
<path d="M264 346C264 424.977 204.902 489 132 489C59.0984 489 0 424.977 0 346C0 267.023 59.0984 203 132 203C204.902 203 264 267.023 264 346Z" fill="white"/>
</svg>
