<svg width="727" height="386" viewBox="0 0 727 386" fill="none" xmlns="http://www.w3.org/2000/svg">
<path d="M727 110C727 170.751 676.856 220 615 220C553.144 220 503 170.751 503 110C503 49.2487 553.144 0 615 0C676.856 0 727 49.2487 727 110Z" fill="white"/>
<path d="M503 198.5C503 236.884 472.108 268 434 268C395.892 268 365 236.884 365 198.5C365 160.116 395.892 129 434 129C472.108 129 503 160.116 503 198.5Z" fill="white"/>
<path d="M586 202.5C586 240.884 554.884 272 516.5 272C478.116 272 447 240.884 447 202.5C447 164.116 478.116 133 516.5 133C554.884 133 586 164.116 586 202.5Z" fill="white"/>
<path d="M642 219.5C642 257.884 610.884 289 572.5 289C534.116 289 503 257.884 503 219.5C503 181.116 534.116 150 572.5 150C610.884 150 642 181.116 642 219.5Z" fill="white"/>
<path d="M417 242.5C417 280.884 386.108 312 348 312C309.892 312 279 280.884 279 242.5C279 204.116 309.892 173 348 173C386.108 173 417 204.116 417 242.5Z" fill="white"/>
<path d="M346 257.5C346 314.661 299.438 361 242 361C184.562 361 138 314.661 138 257.5C138 200.339 184.562 154 242 154C299.438 154 346 200.339 346 257.5Z" fill="white"/>
<path d="M208 282C208 339.438 161.438 386 104 386C46.5624 386 0 339.438 0 282C0 224.562 46.5624 178 104 178C161.438 178 208 224.562 208 282Z" fill="white"/>
</svg>
