<svg width="355" height="156" viewBox="0 0 355 156" fill="none" xmlns="http://www.w3.org/2000/svg">
<path d="M335.5 0L339.774 15.2255L355 19.5L339.774 23.7745L335.5 39L331.226 23.7745L316 19.5L331.226 15.2255L335.5 0Z" fill="#D9D9D9"/>
<path d="M46.5 0L50.7745 15.2255L66 19.5L50.7745 23.7745L46.5 39L42.2255 23.7745L27 19.5L42.2255 15.2255L46.5 0Z" fill="#D9D9D9"/>
<path d="M195.5 79L197.363 85.6368L204 87.5L197.363 89.3632L195.5 96L193.637 89.3632L187 87.5L193.637 85.6368L195.5 79Z" fill="#D9D9D9"/>
<path d="M294 96L296.411 104.589L305 107L296.411 109.411L294 118L291.589 109.411L283 107L291.589 104.589L294 96Z" fill="#D9D9D9"/>
<path d="M11 51L13.4112 59.5888L22 62L13.4112 64.4112L11 73L8.58877 64.4112L0 62L8.58877 59.5888L11 51Z" fill="#D9D9D9"/>
<path d="M195.5 79L197.363 85.6368L204 87.5L197.363 89.3632L195.5 96L193.637 89.3632L187 87.5L193.637 85.6368L195.5 79Z" fill="#D9D9D9"/>
<path d="M109.5 56L111.363 62.6368L118 64.5L111.363 66.3632L109.5 73L107.637 66.3632L101 64.5L107.637 62.6368L109.5 56Z" fill="#D9D9D9"/>
<path d="M66.5 125L68.3632 131.637L75 133.5L68.3632 135.363L66.5 142L64.6368 135.363L58 133.5L64.6368 131.637L66.5 125Z" fill="#D9D9D9"/>
<path d="M43.5 98L44.7056 102.294L49 103.5L44.7056 104.706L43.5 109L42.2944 104.706L38 103.5L42.2944 102.294L43.5 98Z" fill="#D9D9D9"/>
<path d="M241.5 16L243.363 22.6368L250 24.5L243.363 26.3632L241.5 33L239.637 26.3632L233 24.5L239.637 22.6368L241.5 16Z" fill="#D9D9D9"/>
<path d="M18.5 139L20.3632 145.637L27 147.5L20.3632 149.363L18.5 156L16.6368 149.363L10 147.5L16.6368 145.637L18.5 139Z" fill="#D9D9D9"/>
<path d="M229.5 107L233.336 120.664L247 124.5L233.336 128.336L229.5 142L225.664 128.336L212 124.5L225.664 120.664L229.5 107Z" fill="#D9D9D9"/>
</svg>
